{
  "asset": {
    "generator": "Khronos glTF Blender I/O v1.7.33",
    "version": "2.0"
  },
  "scene": 0,
  "scenes": [
    {
      "name": "Scene",
      "nodes": [
        5
      ]
    }
  ],
  "nodes": [
    {
      "name": "rightDoor",
      "rotation": [
        -6.883939107638071e-8,
        -6.883939107638071e-8,
        -0.7071068286895752,
        0.7071068286895752
      ],
      "translation": [
        -0.5829641222953796,
        -0.19178950786590576,
        0.39663878083229065
      ]
    },
    {
      "name": "centerDoor",
      "rotation": [
        1.4189487274052226e-7,
        -1.4189487274052226e-7,
        0.7071068286895752,
        0.7071068286895752
      ],
      "translation": [
        0.1953161507844925,
        -0.19192194938659668,
        0.3980604112148285
      ]
    },
    {
      "name": "leftDoor",
      "rotation": [
        2.6833544097826234e-7,
        -2.6833544097826234e-7,
        0.7071068286895752,
        0.7071068286895752
      ],
      "translation": [
        0.5865057110786438,
        -0.19192194938659668,
        0.3980604112148285
      ]
    },
    {
      "children": [
        0,
        1,
        2
      ],
      "name": "root"
    },
    {
      "mesh": 0,
      "name": "3HWFL_LXMS8V",
      "skin": 0
    },
    {
      "children": [
        4,
        3
      ],
      "name": "goodsUnitArmature",
      "rotation": [
        -0.7071068286895752,
        0,
        0,
        0.7071068286895752
      ]
    }
  ],
  "animations": [
    {
      "channels": [
        {
          "sampler": 0,
          "target": {
            "node": 3,
            "path": "rotation"
          }
        },
        {
          "sampler": 1,
          "target": {
            "node": 1,
            "path": "rotation"
          }
        },
        {
          "sampler": 2,
          "target": {
            "node": 2,
            "path": "rotation"
          }
        }
      ],
      "name": "center-door-open",
      "samplers": [
        {
          "input": 57,
          "interpolation": "LINEAR",
          "output": 58
        },
        {
          "input": 59,
          "interpolation": "LINEAR",
          "output": 60
        },
        {
          "input": 57,
          "interpolation": "LINEAR",
          "output": 61
        }
      ]
    },
    {
      "channels": [
        {
          "sampler": 0,
          "target": {
            "node": 3,
            "path": "rotation"
          }
        },
        {
          "sampler": 1,
          "target": {
            "node": 1,
            "path": "rotation"
          }
        },
        {
          "sampler": 2,
          "target": {
            "node": 2,
            "path": "rotation"
          }
        }
      ],
      "name": "left-door-open",
      "samplers": [
        {
          "input": 57,
          "interpolation": "LINEAR",
          "output": 62
        },
        {
          "input": 57,
          "interpolation": "LINEAR",
          "output": 63
        },
        {
          "input": 59,
          "interpolation": "LINEAR",
          "output": 64
        }
      ]
    },
    {
      "channels": [
        {
          "sampler": 0,
          "target": {
            "node": 3,
            "path": "rotation"
          }
        },
        {
          "sampler": 1,
          "target": {
            "node": 0,
            "path": "rotation"
          }
        },
        {
          "sampler": 2,
          "target": {
            "node": 1,
            "path": "rotation"
          }
        },
        {
          "sampler": 3,
          "target": {
            "node": 2,
            "path": "rotation"
          }
        }
      ],
      "name": "right-door-open",
      "samplers": [
        {
          "input": 57,
          "interpolation": "LINEAR",
          "output": 65
        },
        {
          "input": 59,
          "interpolation": "LINEAR",
          "output": 66
        },
        {
          "input": 57,
          "interpolation": "LINEAR",
          "output": 67
        },
        {
          "input": 57,
          "interpolation": "LINEAR",
          "output": 68
        }
      ]
    }
  ],
  "materials": [
    {
      "name": "stone_terazo",
      "pbrMetallicRoughness": {
        "baseColorTexture": {
          "index": 0
        },
        "metallicFactor": 0,
        "roughnessFactor": 0.3499999940395355
      }
    },
    {
      "name": "wood_section_chips",
      "normalTexture": {
        "index": 1
      },
      "pbrMetallicRoughness": {
        "baseColorTexture": {
          "index": 2
        },
        "metallicFactor": 0,
        "roughnessFactor": 0.800000011920929
      }
    },
    {
      "name": "wood_chipboard_orange_wide",
      "pbrMetallicRoughness": {
        "baseColorTexture": {
          "index": 3
        },
        "metallicFactor": 0,
        "roughnessFactor": 0.4000000059604645
      }
    },
    {
      "name": "silver.001",
      "pbrMetallicRoughness": {
        "baseColorFactor": [
          0.4479883313179016,
          0.4479883313179016,
          0.4479883313179016,
          1
        ],
        "roughnessFactor": 0.20000000298023224
      }
    },
    {
      "name": "body_gold_1",
      "pbrMetallicRoughness": {
        "baseColorFactor": [
          0.35153260827064514,
          0.2704979181289673,
          0.19806936383247375,
          1
        ],
        "metallicFactor": 0,
        "roughnessFactor": 0.3499999940395355
      }
    },
    {
      "name": "body_gold_2",
      "pbrMetallicRoughness": {
        "baseColorFactor": [
          0.44999998807907104,
          0.34626680612564087,
          0.25355035066604614,
          1
        ],
        "metallicFactor": 0,
        "roughnessFactor": 0.5
      }
    },
    {
      "name": "pla_black",
      "pbrMetallicRoughness": {
        "baseColorFactor": [
          0.003935939632356167,
          0.003935939632356167,
          0.003935939632356167,
          1
        ],
        "metallicFactor": 0,
        "roughnessFactor": 0.6000000238418579
      }
    },
    {
      "name": "silver",
      "pbrMetallicRoughness": {
        "baseColorFactor": [
          0.4479883313179016,
          0.4479883313179016,
          0.4479883313179016,
          1
        ],
        "roughnessFactor": 0.20000000298023224
      }
    }
  ],
  "meshes": [
    {
      "name": "3HWFL_LXMS8V",
      "primitives": [
        {
          "attributes": {
            "POSITION": 0,
            "NORMAL": 1,
            "TEXCOORD_0": 2,
            "COLOR_0": 3,
            "JOINTS_0": 4,
            "WEIGHTS_0": 5
          },
          "indices": 6,
          "material": 0
        },
        {
          "attributes": {
            "POSITION": 7,
            "NORMAL": 8,
            "TEXCOORD_0": 9,
            "COLOR_0": 10,
            "JOINTS_0": 11,
            "WEIGHTS_0": 12
          },
          "indices": 13,
          "material": 1
        },
        {
          "attributes": {
            "POSITION": 14,
            "NORMAL": 15,
            "TEXCOORD_0": 16,
            "COLOR_0": 17,
            "JOINTS_0": 18,
            "WEIGHTS_0": 19
          },
          "indices": 20,
          "material": 2
        },
        {
          "attributes": {
            "POSITION": 21,
            "NORMAL": 22,
            "TEXCOORD_0": 23,
            "COLOR_0": 24,
            "JOINTS_0": 25,
            "WEIGHTS_0": 26
          },
          "indices": 27,
          "material": 3
        },
        {
          "attributes": {
            "POSITION": 28,
            "NORMAL": 29,
            "TEXCOORD_0": 30,
            "COLOR_0": 31,
            "JOINTS_0": 32,
            "WEIGHTS_0": 33
          },
          "indices": 34,
          "material": 4
        },
        {
          "attributes": {
            "POSITION": 35,
            "NORMAL": 36,
            "TEXCOORD_0": 37,
            "COLOR_0": 38,
            "JOINTS_0": 39,
            "WEIGHTS_0": 40
          },
          "indices": 41,
          "material": 5
        },
        {
          "attributes": {
            "POSITION": 42,
            "NORMAL": 43,
            "TEXCOORD_0": 44,
            "COLOR_0": 45,
            "JOINTS_0": 46,
            "WEIGHTS_0": 47
          },
          "indices": 48,
          "material": 6
        },
        {
          "attributes": {
            "POSITION": 49,
            "NORMAL": 50,
            "TEXCOORD_0": 51,
            "COLOR_0": 52,
            "JOINTS_0": 53,
            "WEIGHTS_0": 54
          },
          "indices": 55,
          "material": 7
        }
      ]
    }
  ],
  "textures": [
    {
      "sampler": 0,
      "source": 0
    },
    {
      "sampler": 0,
      "source": 1
    },
    {
      "sampler": 0,
      "source": 2
    },
    {
      "sampler": 0,
      "source": 3
    }
  ],
  "images": [
    {
      "name": "diffuseColor",
      "uri": "3HWFL_LXMS8V_img0.jpg"
    },
    {
      "name": "normal",
      "uri": "3HWFL_LXMS8V_img1.jpg"
    },
    {
      "name": "diffuseColor",
      "uri": "3HWFL_LXMS8V_img2.jpg"
    },
    {
      "name": "diffuseColor",
      "uri": "3HWFL_LXMS8V_img3.jpg"
    }
  ],
  "skins": [
    {
      "inverseBindMatrices": 56,
      "joints": [
        3,
        0,
        1,
        2
      ],
      "name": "goodsUnitArmature"
    }
  ],
  "accessors": [
    {
      "bufferView": 0,
      "componentType": 5126,
      "count": 1406,
      "max": [
        0.5965006947517395,
        0.7030961513519287,
        0.20330485701560974
      ],
      "min": [
        -0.5965006947517395,
        0.07085853815078735,
        -0.20330485701560974
      ],
      "type": "VEC3"
    },
    {
      "bufferView": 1,
      "componentType": 5126,
      "count": 1406,
      "type": "VEC3"
    },
    {
      "bufferView": 2,
      "componentType": 5126,
      "count": 1406,
      "type": "VEC2"
    },
    {
      "bufferView": 3,
      "componentType": 5123,
      "count": 1406,
      "normalized": true,
      "type": "VEC4"
    },
    {
      "bufferView": 4,
      "componentType": 5121,
      "count": 1406,
      "type": "VEC4"
    },
    {
      "bufferView": 5,
      "componentType": 5126,
      "count": 1406,
      "type": "VEC4"
    },
    {
      "bufferView": 6,
      "componentType": 5123,
      "count": 1944,
      "type": "SCALAR"
    },
    {
      "bufferView": 7,
      "componentType": 5126,
      "count": 68,
      "max": [
        0.5965006947517395,
        0.7028961181640625,
        0.1570708453655243
      ],
      "min": [
        -0.5965006947517395,
        0.002808988094329834,
        -0.20330485701560974
      ],
      "type": "VEC3"
    },
    {
      "bufferView": 8,
      "componentType": 5126,
      "count": 68,
      "type": "VEC3"
    },
    {
      "bufferView": 9,
      "componentType": 5126,
      "count": 68,
      "type": "VEC2"
    },
    {
      "bufferView": 10,
      "componentType": 5123,
      "count": 68,
      "normalized": true,
      "type": "VEC4"
    },
    {
      "bufferView": 11,
      "componentType": 5121,
      "count": 68,
      "type": "VEC4"
    },
    {
      "bufferView": 12,
      "componentType": 5126,
      "count": 68,
      "type": "VEC4"
    },
    {
      "bufferView": 13,
      "componentType": 5123,
      "count": 132,
      "type": "SCALAR"
    },
    {
      "bufferView": 14,
      "componentType": 5126,
      "count": 146,
      "max": [
        0.5783616304397583,
        0.6779030561447144,
        0.18160024285316467
      ],
      "min": [
        -0.5826523303985596,
        0.0030089616775512695,
        -0.1979997456073761
      ],
      "type": "VEC3"
    },
    {
      "bufferView": 15,
      "componentType": 5126,
      "count": 146,
      "type": "VEC3"
    },
    {
      "bufferView": 16,
      "componentType": 5126,
      "count": 146,
      "type": "VEC2"
    },
    {
      "bufferView": 17,
      "componentType": 5123,
      "count": 146,
      "normalized": true,
      "type": "VEC4"
    },
    {
      "bufferView": 18,
      "componentType": 5121,
      "count": 146,
      "type": "VEC4"
    },
    {
      "bufferView": 19,
      "componentType": 5126,
      "count": 146,
      "type": "VEC4"
    },
    {
      "bufferView": 20,
      "componentType": 5123,
      "count": 264,
      "type": "SCALAR"
    },
    {
      "bufferView": 21,
      "componentType": 5126,
      "count": 174,
      "max": [
        0.5316586494445801,
        0.15582388639450073,
        -0.16653859615325928
      ],
      "min": [
        0.25565823912620544,
        0.09284961223602295,
        -0.1725386083126068
      ],
      "type": "VEC3"
    },
    {
      "bufferView": 22,
      "componentType": 5126,
      "count": 174,
      "type": "VEC3"
    },
    {
      "bufferView": 23,
      "componentType": 5126,
      "count": 174,
      "type": "VEC2"
    },
    {
      "bufferView": 24,
      "componentType": 5123,
      "count": 174,
      "normalized": true,
      "type": "VEC4"
    },
    {
      "bufferView": 25,
      "componentType": 5121,
      "count": 174,
      "type": "VEC4"
    },
    {
      "bufferView": 26,
      "componentType": 5126,
      "count": 174,
      "type": "VEC4"
    },
    {
      "bufferView": 27,
      "componentType": 5123,
      "count": 864,
      "type": "SCALAR"
    },
    {
      "bufferView": 28,
      "componentType": 5126,
      "count": 414,
      "max": [
        0.5380006432533264,
        0.07280910015106201,
        0.15727084875106812
      ],
      "min": [
        -0.5380006432533264,
        0.002808988094329834,
        -0.17105114459991455
      ],
      "type": "VEC3"
    },
    {
      "bufferView": 29,
      "componentType": 5126,
      "count": 414,
      "type": "VEC3"
    },
    {
      "bufferView": 30,
      "componentType": 5126,
      "count": 414,
      "type": "VEC2"
    },
    {
      "bufferView": 31,
      "componentType": 5123,
      "count": 414,
      "normalized": true,
      "type": "VEC4"
    },
    {
      "bufferView": 32,
      "componentType": 5121,
      "count": 414,
      "type": "VEC4"
    },
    {
      "bufferView": 33,
      "componentType": 5126,
      "count": 414,
      "type": "VEC4"
    },
    {
      "bufferView": 34,
      "componentType": 5123,
      "count": 468,
      "type": "SCALAR"
    },
    {
      "bufferView": 35,
      "componentType": 5126,
      "count": 8,
      "max": [
        0.5379303097724915,
        0.07260912656784058,
        0.13675475120544434
      ],
      "min": [
        -0.5379303097724915,
        0.0030089616775512695,
        -0.15077242255210876
      ],
      "type": "VEC3"
    },
    {
      "bufferView": 36,
      "componentType": 5126,
      "count": 8,
      "type": "VEC3"
    },
    {
      "bufferView": 37,
      "componentType": 5126,
      "count": 8,
      "type": "VEC2"
    },
    {
      "bufferView": 38,
      "componentType": 5123,
      "count": 8,
      "normalized": true,
      "type": "VEC4"
    },
    {
      "bufferView": 39,
      "componentType": 5121,
      "count": 8,
      "type": "VEC4"
    },
    {
      "bufferView": 40,
      "componentType": 5126,
      "count": 8,
      "type": "VEC4"
    },
    {
      "bufferView": 41,
      "componentType": 5123,
      "count": 12,
      "type": "SCALAR"
    },
    {
      "bufferView": 42,
      "componentType": 5126,
      "count": 1180,
      "max": [
        0.5370280742645264,
        0.0028153657913208008,
        0.15667101740837097
      ],
      "min": [
        -0.5370280742645264,
        0,
        -0.17100954055786133
      ],
      "type": "VEC3"
    },
    {
      "bufferView": 43,
      "componentType": 5126,
      "count": 1180,
      "type": "VEC3"
    },
    {
      "bufferView": 44,
      "componentType": 5126,
      "count": 1180,
      "type": "VEC2"
    },
    {
      "bufferView": 45,
      "componentType": 5123,
      "count": 1180,
      "normalized": true,
      "type": "VEC4"
    },
    {
      "bufferView": 46,
      "componentType": 5121,
      "count": 1180,
      "type": "VEC4"
    },
    {
      "bufferView": 47,
      "componentType": 5126,
      "count": 1180,
      "type": "VEC4"
    },
    {
      "bufferView": 48,
      "componentType": 5123,
      "count": 2940,
      "type": "SCALAR"
    },
    {
      "bufferView": 49,
      "componentType": 5126,
      "count": 768,
      "max": [
        0.5303359627723694,
        0.0015687942504882812,
        0.14988502860069275
      ],
      "min": [
        -0.5303359627723694,
        0.0005820393562316895,
        -0.1642235517501831
      ],
      "type": "VEC3"
    },
    {
      "bufferView": 50,
      "componentType": 5126,
      "count": 768,
      "type": "VEC3"
    },
    {
      "bufferView": 51,
      "componentType": 5126,
      "count": 768,
      "type": "VEC2"
    },
    {
      "bufferView": 52,
      "componentType": 5123,
      "count": 768,
      "normalized": true,
      "type": "VEC4"
    },
    {
      "bufferView": 53,
      "componentType": 5121,
      "count": 768,
      "type": "VEC4"
    },
    {
      "bufferView": 54,
      "componentType": 5126,
      "count": 768,
      "type": "VEC4"
    },
    {
      "bufferView": 55,
      "componentType": 5123,
      "count": 1152,
      "type": "SCALAR"
    },
    {
      "bufferView": 56,
      "componentType": 5126,
      "count": 4,
      "type": "MAT4"
    },
    {
      "bufferView": 57,
      "componentType": 5126,
      "count": 2,
      "max": [
        1
      ],
      "min": [
        0.03333333333333333
      ],
      "type": "SCALAR"
    },
    {
      "bufferView": 58,
      "componentType": 5126,
      "count": 2,
      "type": "VEC4"
    },
    {
      "bufferView": 59,
      "componentType": 5126,
      "count": 30,
      "max": [
        1
      ],
      "min": [
        0.03333333333333333
      ],
      "type": "SCALAR"
    },
    {
      "bufferView": 60,
      "componentType": 5126,
      "count": 30,
      "type": "VEC4"
    },
    {
      "bufferView": 61,
      "componentType": 5126,
      "count": 2,
      "type": "VEC4"
    },
    {
      "bufferView": 62,
      "componentType": 5126,
      "count": 2,
      "type": "VEC4"
    },
    {
      "bufferView": 63,
      "componentType": 5126,
      "count": 2,
      "type": "VEC4"
    },
    {
      "bufferView": 64,
      "componentType": 5126,
      "count": 30,
      "type": "VEC4"
    },
    {
      "bufferView": 65,
      "componentType": 5126,
      "count": 2,
      "type": "VEC4"
    },
    {
      "bufferView": 66,
      "componentType": 5126,
      "count": 30,
      "type": "VEC4"
    },
    {
      "bufferView": 67,
      "componentType": 5126,
      "count": 2,
      "type": "VEC4"
    },
    {
      "bufferView": 68,
      "componentType": 5126,
      "count": 2,
      "type": "VEC4"
    }
  ],
  "bufferViews": [
    {
      "buffer": 0,
      "byteLength": 16872,
      "byteOffset": 0
    },
    {
      "buffer": 0,
      "byteLength": 16872,
      "byteOffset": 16872
    },
    {
      "buffer": 0,
      "byteLength": 11248,
      "byteOffset": 33744
    },
    {
      "buffer": 0,
      "byteLength": 11248,
      "byteOffset": 44992
    },
    {
      "buffer": 0,
      "byteLength": 5624,
      "byteOffset": 56240
    },
    {
      "buffer": 0,
      "byteLength": 22496,
      "byteOffset": 61864
    },
    {
      "buffer": 0,
      "byteLength": 3888,
      "byteOffset": 84360
    },
    {
      "buffer": 0,
      "byteLength": 816,
      "byteOffset": 88248
    },
    {
      "buffer": 0,
      "byteLength": 816,
      "byteOffset": 89064
    },
    {
      "buffer": 0,
      "byteLength": 544,
      "byteOffset": 89880
    },
    {
      "buffer": 0,
      "byteLength": 544,
      "byteOffset": 90424
    },
    {
      "buffer": 0,
      "byteLength": 272,
      "byteOffset": 90968
    },
    {
      "buffer": 0,
      "byteLength": 1088,
      "byteOffset": 91240
    },
    {
      "buffer": 0,
      "byteLength": 264,
      "byteOffset": 92328
    },
    {
      "buffer": 0,
      "byteLength": 1752,
      "byteOffset": 92592
    },
    {
      "buffer": 0,
      "byteLength": 1752,
      "byteOffset": 94344
    },
    {
      "buffer": 0,
      "byteLength": 1168,
      "byteOffset": 96096
    },
    {
      "buffer": 0,
      "byteLength": 1168,
      "byteOffset": 97264
    },
    {
      "buffer": 0,
      "byteLength": 584,
      "byteOffset": 98432
    },
    {
      "buffer": 0,
      "byteLength": 2336,
      "byteOffset": 99016
    },
    {
      "buffer": 0,
      "byteLength": 528,
      "byteOffset": 101352
    },
    {
      "buffer": 0,
      "byteLength": 2088,
      "byteOffset": 101880
    },
    {
      "buffer": 0,
      "byteLength": 2088,
      "byteOffset": 103968
    },
    {
      "buffer": 0,
      "byteLength": 1392,
      "byteOffset": 106056
    },
    {
      "buffer": 0,
      "byteLength": 1392,
      "byteOffset": 107448
    },
    {
      "buffer": 0,
      "byteLength": 696,
      "byteOffset": 108840
    },
    {
      "buffer": 0,
      "byteLength": 2784,
      "byteOffset": 109536
    },
    {
      "buffer": 0,
      "byteLength": 1728,
      "byteOffset": 112320
    },
    {
      "buffer": 0,
      "byteLength": 4968,
      "byteOffset": 114048
    },
    {
      "buffer": 0,
      "byteLength": 4968,
      "byteOffset": 119016
    },
    {
      "buffer": 0,
      "byteLength": 3312,
      "byteOffset": 123984
    },
    {
      "buffer": 0,
      "byteLength": 3312,
      "byteOffset": 127296
    },
    {
      "buffer": 0,
      "byteLength": 1656,
      "byteOffset": 130608
    },
    {
      "buffer": 0,
      "byteLength": 6624,
      "byteOffset": 132264
    },
    {
      "buffer": 0,
      "byteLength": 936,
      "byteOffset": 138888
    },
    {
      "buffer": 0,
      "byteLength": 96,
      "byteOffset": 139824
    },
    {
      "buffer": 0,
      "byteLength": 96,
      "byteOffset": 139920
    },
    {
      "buffer": 0,
      "byteLength": 64,
      "byteOffset": 140016
    },
    {
      "buffer": 0,
      "byteLength": 64,
      "byteOffset": 140080
    },
    {
      "buffer": 0,
      "byteLength": 32,
      "byteOffset": 140144
    },
    {
      "buffer": 0,
      "byteLength": 128,
      "byteOffset": 140176
    },
    {
      "buffer": 0,
      "byteLength": 24,
      "byteOffset": 140304
    },
    {
      "buffer": 0,
      "byteLength": 14160,
      "byteOffset": 140328
    },
    {
      "buffer": 0,
      "byteLength": 14160,
      "byteOffset": 154488
    },
    {
      "buffer": 0,
      "byteLength": 9440,
      "byteOffset": 168648
    },
    {
      "buffer": 0,
      "byteLength": 9440,
      "byteOffset": 178088
    },
    {
      "buffer": 0,
      "byteLength": 4720,
      "byteOffset": 187528
    },
    {
      "buffer": 0,
      "byteLength": 18880,
      "byteOffset": 192248
    },
    {
      "buffer": 0,
      "byteLength": 5880,
      "byteOffset": 211128
    },
    {
      "buffer": 0,
      "byteLength": 9216,
      "byteOffset": 217008
    },
    {
      "buffer": 0,
      "byteLength": 9216,
      "byteOffset": 226224
    },
    {
      "buffer": 0,
      "byteLength": 6144,
      "byteOffset": 235440
    },
    {
      "buffer": 0,
      "byteLength": 6144,
      "byteOffset": 241584
    },
    {
      "buffer": 0,
      "byteLength": 3072,
      "byteOffset": 247728
    },
    {
      "buffer": 0,
      "byteLength": 12288,
      "byteOffset": 250800
    },
    {
      "buffer": 0,
      "byteLength": 2304,
      "byteOffset": 263088
    },
    {
      "buffer": 0,
      "byteLength": 256,
      "byteOffset": 265392
    },
    {
      "buffer": 0,
      "byteLength": 8,
      "byteOffset": 265648
    },
    {
      "buffer": 0,
      "byteLength": 32,
      "byteOffset": 265656
    },
    {
      "buffer": 0,
      "byteLength": 120,
      "byteOffset": 265688
    },
    {
      "buffer": 0,
      "byteLength": 480,
      "byteOffset": 265808
    },
    {
      "buffer": 0,
      "byteLength": 32,
      "byteOffset": 266288
    },
    {
      "buffer": 0,
      "byteLength": 32,
      "byteOffset": 266320
    },
    {
      "buffer": 0,
      "byteLength": 32,
      "byteOffset": 266352
    },
    {
      "buffer": 0,
      "byteLength": 480,
      "byteOffset": 266384
    },
    {
      "buffer": 0,
      "byteLength": 32,
      "byteOffset": 266864
    },
    {
      "buffer": 0,
      "byteLength": 480,
      "byteOffset": 266896
    },
    {
      "buffer": 0,
      "byteLength": 32,
      "byteOffset": 267376
    },
    {
      "buffer": 0,
      "byteLength": 32,
      "byteOffset": 267408
    }
  ],
  "samplers": [
    {
      "magFilter": 9729,
      "minFilter": 9987
    }
  ],
  "buffers": [
    {
      "uri": "3HWFL_LXMS8V_data.bin",
      "byteLength": 267440
    }
  ]
}